<svg xmlns="http://www.w3.org/2000/svg" viewBox="0 0 1083.435 377.566"><path fill="#211714" d="M296.431.11c-8.159.428-14.807 2.112-19.593 5.056-5.799 3.567-9.191 7.837-10.006 12.36-.815 4.523.975 9.24 5.357 13.623 2.292 2.291 7.711 5.704 13.072 8.593 2.681 1.445 5.342 2.752 7.579 3.7 2.236.948 4.006 1.55 5.097 1.55.496 0 1.017.098 1.436.25.418.153.723.38.803.508.259.42.77.684 1.445.983.675.298 1.51.572 2.361.76 2.196.482 7.789 2.5 13.79 4.892 6 2.392 12.446 5.165 16.46 7.17 9.225 4.607 14.993 10.649 15.85 16.36 1.359 9.061-2.88 19.966-15.13 38.534-5.824 8.83-8.604 12.633-29.107 39.805-14.71 19.497-19.461 27.084-21.671 34.686-1.087 3.739-1.438 6.536-.893 8.842.545 2.306 2.001 4.072 4.377 5.691 2.113 1.44 3.711 2.174 6.03 2.01 2.318-.165 5.325-1.178 10.456-3.117 8.25-3.119 18.041-8.744 35.57-20.415 12.05-8.022 20.236-12.292 28.434-13.376 8.199-1.085 16.475 1.004 28.746 5.808 4.687 1.835 11.762 4.324 15.758 5.543l7.37 2.248 4.513-2.254c2.968-1.482 5.662-3.814 7.627-6.38 1.964-2.567 3.209-5.368 3.209-7.839 0-2.548-1.57-6.307-4.51-11.197-2.94-4.89-7.268-10.884-12.848-17.762-8.246-10.165-12.488-16.214-13.455-22.09-.967-5.874 1.301-11.706 6.256-21.519a157.933 157.933 0 0 0 4.887-10.67c1.363-3.311 2.351-6.093 2.644-7.642 2.358-12.455.164-25.215-5.945-34.415-3.293-4.959-10.391-10.523-19.342-15.662-8.95-5.138-19.752-9.831-30.44-12.947-3.294-.96-7.021-2.137-8.222-2.59-3.397-1.282-14.014-3.664-29.308-6.611C314.26.51 304.59-.32 296.43.11Zm229.805 36.462c-1.222.036-2.547.26-4.008.653-2.982.803-5.707 2.703-8.683 6.285-2.977 3.582-6.225 8.852-10.3 16.467-2.148 4.017-5.494 8.945-8.786 13.168-3.292 4.223-6.571 7.76-8.428 8.941-.748.476-1.484.975-2.07 1.4-.587.426-.996.732-1.21.989a3.672 3.672 0 0 1-.4.312c-.228.158-.534.352-.892.569-.717.433-1.642.951-2.598 1.447-2.456 1.274-6.665 1.94-15.56 2.383-3.848.191-7.021.459-9.342.78-1.16.16-2.107.334-2.826.52-.72.187-1.203.349-1.512.659-.605.605-1.856 1.17-2.559 1.19-.75.019-1.586.384-2.484.956-.899.572-1.854 1.363-2.781 2.28-1.856 1.833-3.601 4.168-4.49 6.31-1.491 3.59-2.088 6.217-1.512 8.697.575 2.481 2.297 4.74 5.293 7.653 4.498 4.374 6.676 5.614 13.394 7.63 14 4.203 23.107 8.901 29.682 16.846 6.575 7.945 10.644 19.184 14.45 36.51 1.806 8.216 3.961 14.354 6.63 18.635 2.668 4.281 5.879 6.711 9.715 7.408 2.51.456 4.027.64 5.494.176 1.466-.463 2.796-1.536 5.008-3.483 2.55-2.245 4.403-4.686 6.021-8.43 1.618-3.743 3.012-8.788 4.697-16.304 4.602-20.521 6.812-42.381 7.873-77.793.314-10.461.016-20.873-.748-29.531-.762-8.658-1.97-15.54-3.547-19.047a32.101 32.101 0 0 1-.99-2.463 13.823 13.823 0 0 1-.296-.938c-.07-.255-.1-.46-.1-.51 0-.284-.112-.495-.274-.827-.161-.333-.39-.74-.668-1.202a44.213 44.213 0 0 0-2.16-3.203c-1.762-2.396-3.544-3.934-5.643-4.654-1.049-.36-2.168-.514-3.39-.479zm-287.365 4.721c-1.604 0-2.82.19-4.031.805-1.213.616-2.404 1.634-4.041 3.271a26.942 26.942 0 0 0-3.043 3.672c-.854 1.242-1.483 2.385-1.688 3.244a21.338 21.338 0 0 1-.664 2.217c-.243.671-.502 1.232-.648 1.44-.153.216-.289.545-.49 1.052-.202.508-.446 1.17-.715 1.944a143.208 143.208 0 0 0-1.807 5.603 700.081 700.081 0 0 1-4.654 14.75 104.099 104.099 0 0 0-1.702 5.662 43.32 43.32 0 0 0-.52 2.137c-.123.588-.196 1.02-.196 1.326 0 1.396-.89 4.377-2.19 7.514-1.3 3.137-3.003 6.476-4.578 8.766-6.803 9.887-14.742 15.25-30.742 20.734-5.63 1.93-8.994 3.205-11.565 4.69-2.57 1.484-4.328 3.177-6.7 5.872-3.218 3.655-4.948 7.364-5.143 11.153-.196 3.788 1.148 7.628 3.976 11.533 1.264 1.744 2.292 2.882 3.739 3.78 1.446.897 3.28 1.546 6.173 2.386 3.746 1.088 8.814 2.277 11.328 2.652 9.878 1.475 16.98 4.828 22.461 10.573 1.62 1.696 4.475 6.126 6.881 10.396 1.203 2.135 2.374 4.206 3.094 5.951 2.21 5.355 3.721 10.854 4.893 16.188.382 1.743.912 3.835 1.486 5.935 1.149 4.2 2.46 8.386 3.281 9.957 1.898 3.634 6.416 7.977 9.82 9.4 4.464 1.867 10.177.587 13.967-3.087 4.644-4.501 7.011-10.004 9.844-22.75 3.043-13.692 4.228-23.524 6.695-55.557 2.737-35.523 2.64-43.465-.92-74.898-.669-5.91-2.054-12.665-3.648-18.448-1.595-5.782-3.363-10.56-4.947-12.642-1.415-1.86-3.693-3.647-6.1-4.986-2.407-1.34-4.932-2.235-6.906-2.235zM68.904 47.494c-4.499-.234-9.915-.154-19.04.092-9.166.247-14.439.447-18.26.871-3.822.425-6.194 1.08-9.485 2.219-11.678 4.04-18.217 9.096-21.32 16.588-.565 1.363-.85 2.377-.791 3.53.059 1.151.449 2.405 1.175 4.308 4.138 10.833 15.06 17.932 32.77 21.437 1.854.367 7.739 2.149 12.955 3.936 10.845 3.715 18.396 7.095 23.555 10.762 5.158 3.666 7.929 7.596 9.285 12.5.92 3.327 1.227 6.8.828 8.84a986.428 986.428 0 0 0-1.867 10.003c-1.369 7.528-3.004 12.593-9.83 30.438a981.89 981.89 0 0 0-7.186 19.35c-1.927 5.388-3.243 9.294-3.558 10.699-.366 1.624-1.296 4.908-2.057 7.254-.778 2.399-1.406 5.848-1.406 7.8 0 2.309.874 4.886 2.18 7.067 1.305 2.18 3.034 3.974 4.86 4.642 3.366 1.232 6.725 1.405 10.551.377 3.827-1.027 8.125-3.243 13.452-6.777 14.512-9.629 29.6-26.134 42.71-46.691 14.687-23.029 21.728-41.536 22.63-59.579.876-17.53-2.354-28.819-11.594-40.44-6.3-7.92-21.368-17.428-33.834-21.4-2.194-.699-5.57-1.839-7.487-2.529-1.01-.364-3.242-.923-6.084-1.558a270.24 270.24 0 0 0-9.62-1.954c-5.453-1.004-9.033-1.55-13.532-1.785Zm687.978 94.86c-2.212.154-4.319.622-6.228 1.42-5.07 2.118-9.501 7.648-11.379 14.107-1.621 5.577-1.836 16.296-1.053 27.46.784 11.162 2.576 22.728 5.07 29.917 2.29 6.595 5.411 10.626 9.114 11.86 3.702 1.233 7.855-.424 12.008-4.897 4.262-4.591 6.047-9.143 7.441-18.906.8-5.595 1.895-10.073 3.252-13.37 1.357-3.295 2.975-5.39 4.762-6.288.646-.325 2.238-.776 4.277-1.22 2.04-.443 4.55-.897 7.135-1.3 5.171-.806 10.673-1.406 13.285-1.32 5.098.166 14.586 3.067 18.447 5.623 8.173 5.408 11.325 14.922 8.65 26.299-1.943 8.268-4.741 13.119-11.728 16.218-6.987 3.1-18.232 4.389-36.93 5.24-7.362.336-11.329.551-14.287 1.077-2.958.525-4.889 1.366-8.1 2.91-4.62 2.222-7.32 4.193-8.41 6.3-1.076 2.083-1.605 3.468-1.318 4.84.287 1.373 1.347 2.59 3.238 4.424 4.013 3.89 10.784 6.025 22.358 7.166l.385.04v-.02c5.855.55 17.72.835 29.332.846 11.792.01 23.158-.253 27.365-.817 12.7-1.703 17.586-2.848 23.392-5.5 5.852-2.672 10.157-6.26 12.43-10.02 2.273-3.758 2.485-7.742.088-10.984-3.807-5.15-5.107-9.791-5.107-18.312 0-4.507.64-10.01 1.355-12.035 2.85-8.078 3.648-25.16 1.584-33.764-1.619-6.748-7.795-13.014-15.209-15.49-7.198-2.405-22.867-3.1-35.123-1.612-12.665 1.539-20.793 2.148-26.67 1.641-5.877-.507-9.494-2.104-13.27-5.035-5.946-4.617-13.52-6.961-20.155-6.498zm307.045 1.047c-3.264-.253-6.614.872-9.625 3.058-4.015 2.915-7.455 7.712-9.406 13.705-1.05 3.229-1.622 5.426-1.914 9.946-.292 4.52-.313 11.377-.29 24.033.027 14.856.447 31.26.94 36.533 2.79 29.853 4.674 39.525 9.168 46.611 1.046 1.65 1.942 2.81 2.82 3.575.879.765 1.763 1.13 2.692 1.13 1.79 0 3.593-1.128 5.371-3.12 1.778-1.993 3.548-4.875 5.262-8.502 3.427-7.256 6.62-17.502 9.029-29.563 2.323-11.63 4.067-26.687 4.906-39.961.42-6.637.614-12.826.54-17.922-.076-5.095-.41-9.083-1.085-11.387-.553-1.891-1.239-5.189-1.51-7.265-.513-3.934-2.478-8.39-5.03-12.158-2.554-3.77-5.682-6.854-8.65-7.989a11.464 11.464 0 0 0-3.218-.724zm-439.103.293c-12.528.065-24.915.846-31.416 2.312-10.856 2.449-16.222 5.015-20.463 9.846-1.707 1.944-2.618 3.376-2.584 4.896.034 1.521 1.005 2.97 2.799 4.975 1.093 1.221 3.49 2.886 5.652 4.158 1.082.636 2.096 1.167 2.865 1.479.385.155.701.26.979.289a.745.745 0 0 0 .43-.055c.074-.035.087-.14.138-.22-.048.022-.038.008.004.01.08.001.266.035.5.105.468.14 1.144.415 1.887.785 1.523.758 4.58 1.793 8.408 2.906a217.967 217.967 0 0 0 12.922 3.301c15.992 3.57 27.409 7.062 35.074 10.88 7.666 3.82 11.549 7.93 12.637 12.755.515 2.282.592 7.159.3 12.392-.29 5.234-.94 10.86-1.818 14.74-2.182 9.646-3.164 16.16-2.826 20.983.338 4.823 2.038 7.96 5.131 10.676 2.435 2.138 4.602 3.086 7.133 3.086 1.972 0 4.662-.96 7.283-2.365 2.622-1.405 5.156-3.256 6.729-5.123 11.032-13.095 18.548-27.985 24.375-48.266 1.199-4.173 1.788-10.755 1.795-17.094.008-6.338-.559-12.395-1.772-15.584-3.13-8.227-7.82-14.482-14.873-19.277-7.053-4.796-16.453-8.138-29.023-10.614-7.068-1.391-19.738-2.041-32.266-1.976zm332.68.1c-2.462 0-3.95.081-5.297.64-1.348.559-2.492 1.566-4.309 3.34-2.422 2.365-4.14 4.864-6.031 9.85-1.891 4.985-3.977 12.475-7.194 24.931-3.612 13.99-9.842 32.72-13.03 39.24-1.634 3.34-7.283 12.155-12.5 19.477-9.408 13.2-13.472 20.897-13.472 25.947 0 1.931.955 4.54 2.227 6.844 1.272 2.304 2.812 4.297 4.287 4.89 3.783 1.524 8.347 1.394 14.404-.583 6.057-1.978 13.633-5.8 23.52-11.72 5.826-3.487 11.105-5.86 13.758-6.257 7.241-1.086 17.921.226 29.052 3.607 8.181 2.485 13.669 3.91 17.73 4.424 4.063.515 6.722.108 9.13-1.072 5-2.45 8.6-7.701 8.57-12.61-.023-3.552-.876-6.539-3.793-10.624-2.917-4.086-7.887-9.309-16.205-17.489-8.915-8.768-14.027-14.171-17.023-18.79-2.997-4.62-3.905-8.455-4.432-14.227-.327-3.581-.787-7.615-1.035-9.03-.114-.65-.348-2.64-.62-5.265a652.597 652.597 0 0 1-.878-9.205c-.584-6.591-1.309-11.145-2.549-14.696-1.24-3.55-3.006-6.088-5.613-8.586-1.322-1.266-2.337-2.044-3.614-2.488-1.276-.444-2.774-.549-5.084-.549zm-506.022 49.103c-5.062-.01-10.313.564-15.695 1.738-24.002 5.234-42.01 27.744-44.705 55.787-.942 9.8 1.816 22.77 7.187 33.938 6.473 13.457 20.928 24.51 37.299 28.56 9 2.227 21.84 2.172 32.03-.127 20.754-4.682 35.614-21.122 40.35-44.582 4.245-21.019-2.818-44.93-17.679-59.834-10.13-10.16-23.602-15.45-38.787-15.48zm154.783 23.215a7.27 7.27 0 0 0-2.236.365c-2.977.97-5.877 3.798-8.951 8.474-1.915 2.913-3.9 8.66-5.526 15.235-1.625 6.575-2.872 13.957-3.216 20.064-.378 6.685-2.255 11.848-6.047 16.018s-9.526 7.358-17.643 9.988c-2.166.702-5.418 2.731-7.383 4.584-2.375 2.24-3.648 4.69-3.746 7.121-.098 2.432.99 4.811 3.203 6.88 4.97 4.642 13.074 6.733 32.768 8.595 4.949.468 9.616.935 13.148 1.312 1.767.189 3.25.355 4.34.487 1.09.131 1.835.24 1.96.271.176.045.394.06.745.08.352.02.814.036 1.375.05 1.124.025 2.645.035 4.46.034a691.84 691.84 0 0 0 13.513-.164c8.996-.19 20.483-1.01 30.363-2.035 4.94-.513 9.477-1.076 13.102-1.639 3.624-.562 6.313-1.11 7.656-1.642 1.337-.53 5.081-1.738 8.256-2.658 3.45-1 6.66-2.689 9.03-4.578 2.368-1.89 3.935-3.973 3.935-5.9 0-.914-.334-1.792-1.004-2.645-.67-.854-1.672-1.696-3.047-2.606-5.22-3.454-12.375-5.253-25.766-6.535-6.042-.579-13.254-1.483-15.967-2-2.755-.525-6.792-1.227-8.986-1.56-4.92-.75-11.134-3.18-14.576-5.686-2.301-1.676-3.692-3.504-4.998-8.393-1.306-4.888-2.476-12.796-4.229-26.431-.878-6.84-1.684-11.317-2.837-14.608-1.154-3.29-2.673-5.393-4.913-7.392-2.286-2.042-4.542-3.096-6.783-3.086zm-155.23 17.992c1.092.15 2.301.47 3.695.957 7.294 2.543 9.096 13.216 3.104 18.57-7.099 6.343-19.355 1.043-19.432-8.396-.011-1.618.135-2.67.684-3.73.548-1.061 1.528-2.154 3.218-3.762 2.14-2.035 3.87-3.167 5.733-3.569.931-.2 1.906-.22 2.998-.07zm-253.775 9.795c-3.88.078-9.013.162-14.619 1.945-7.972.965-15.269 3.287-19.717 6.172-2.225 1.442-3.906 3.06-4.922 4.805-1.016 1.744-1.357 3.626-.883 5.515.22.878.949 2.027 1.95 3.346 1 1.32 2.277 3.341 3.599 4.709 1.322 1.367 2.687 2.08 3.87 3.018 6.216 3.425 11.486 4.63 15.874 6.55 6.258 2.743 10.36 6.8 13.432 13.291 2.543 5.378 2.826 6.975 2.826 15.893 0 8.975-.272 10.496-2.897 16.045-2.027 4.284-4.49 7.354-8.13 9.73-3.64 2.377-8.476 4.057-15.227 5.485-2.746.58-5.446 1.217-7.588 1.775a68.21 68.21 0 0 0-2.733.764c-.73.224-1.245.403-1.552.566-1.151.612-1.972.551-2.862-.187-.17-.142-.423-.626-.609-1.754-.186-1.128-.327-2.872-.432-5.496-.208-5.25-.27-14.028-.27-28.59 0-16.178-.034-24.975-.29-30.176-.256-5.2-.753-6.86-1.65-8.611-1.82-3.548-4.55-6.472-7.538-8.362-2.988-1.89-6.246-2.752-9.117-2.105-4.996 1.127-9.108 3.931-12.406 8.53-3.298 4.597-5.798 10.98-7.639 19.31-1.214 5.495-2.658 11.474-3.185 13.215-.295.97-.53 2.922-.711 5.379a118.025 118.025 0 0 0-.3 8.222c-.02 16.937 4.218 29.3 12.698 36.764 5.498 4.84 12.202 7.115 16.785 5.518 1.763-.615 3.514-.732 4.676-.487.581.123 1.005.339 1.217.57.212.232.268.45.125.823-.113.295-.1.623-.043 1.017.056.395.17.85.332 1.35a18.7 18.7 0 0 0 1.465 3.293c1.807 3.216 3.904 4.891 9.619 7.715 3.391 1.675 8.619 3.422 13.244 4.62 2.313.6 4.72 1.307 6.41 1.65 15.269 3.1 31.012 1.982 39.927-.975 4.029-1.336 11.506-4.702 14.888-7.62 1.241-1.07 2.963-3.399 3.941-5.29 2.014-3.895 1.639-10.39-1.088-22.168-.792-3.422-1.217-9.088-1.244-14.487-.027-5.399.357-10.574 1.1-12.928 1.353-4.29 2.67-15.157 3.412-27.84.744-12.722-.456-18.363-5.303-24.775-5.11-6.76-11.077-10.589-21.57-13.869-3.22-1.006-10.335-1.656-16.865-1.865zm595.247 33.496c-7.774.106-14.114.36-17.529.79-15.651 1.974-29.998 5.727-37.625 9.888-6.647 3.625-9.633 10.643-6.715 16.095 1.123 2.099 3.87 3.952 7.512 5.418 3.642 1.466 8.193 2.523 12.951 2.889 4.613.355 9.752.823 11.375 1.033 11.59 1.5 18.218 2.727 22.442 5.022 4.223 2.294 6.124 5.646 8.332 11.629 5.738 15.55 7.965 19.975 12.503 24.808 2.6 2.769 4.426 4.316 6.317 4.735 1.89.418 3.719-.358 6.17-2.02 6.095-4.132 11.423-13.768 16.71-29.93 1.503-4.591 3.618-7.967 7.321-10.96 3.703-2.994 9.012-5.598 16.873-8.55 3.568-1.34 7.856-2.811 9.469-3.253 6.481-1.778 11.63-3.776 15.181-5.848 1.777-1.036 3.155-2.09 4.104-3.162.949-1.073 1.473-2.178 1.473-3.287 0-1.308-.679-2.565-1.934-3.738-1.255-1.174-3.096-2.287-5.512-3.36-4.831-2.146-11.974-4.126-21.34-5.908-2.858-.544-8.752-1.007-16.244-1.38-7.491-.375-16.564-.655-25.709-.815-9.144-.16-18.35-.202-26.125-.096zm184.43 12.047c-1.432-.21-2.776-.124-4.016.244-2.479.735-4.508 2.586-5.984 5.316-2.952 5.462-3.774 14.46-1.834 25.7 3.55 20.564 14.13 34.479 31.072 40.8 8.73 3.258 20.268 3.142 31.512.454 11.245-2.69 22.197-7.954 29.732-15.084 3.895-3.685 5.962-6.423 6.104-8.862.071-1.22-.378-2.338-1.283-3.346-.906-1.008-2.26-1.927-4.059-2.851-2.947-1.514-7.285-1.965-23.148-2.522-5.358-.188-10.538-.487-14.565-.816a113.76 113.76 0 0 1-5.05-.506c-1.312-.17-2.243-.356-2.522-.47-.777-.32-1.96-1.344-3.363-3-1.403-1.657-3.046-3.94-4.866-6.774-6.427-10.011-10.185-15.65-13.365-19.324-3.18-3.674-5.793-5.371-9.822-7.432-1.591-.814-3.111-1.318-4.543-1.527z"/></svg>